<svg width="50" height="51" viewBox="0 0 50 51" fill="none" xmlns="http://www.w3.org/2000/svg">
<path d="M49.9835 25.6034C49.9835 38.23 40.6267 48.6686 28.4715 50.3625C27.3349 50.5202 26.1721 50.6025 24.9918 50.6025C23.6293 50.6025 22.2914 50.4939 20.9885 50.2837C9.08887 48.3673 0 38.046 0 25.6034C0 11.7962 11.1903 0.602539 24.9935 0.602539C38.7967 0.602539 49.987 11.7962 49.987 25.6034H49.9835Z" fill="white"/>
<path d="M28.4715 20.678V26.1242H35.2067L34.1402 33.4605H28.4715V50.3631C27.3349 50.5207 26.1721 50.6031 24.9918 50.6031C23.6293 50.6031 22.2914 50.4945 20.9885 50.2843V33.4605H14.7769V26.1242H20.9885V19.4606C20.9885 15.3265 24.3386 11.9736 28.4732 11.9736V11.9771C28.4855 11.9771 28.496 11.9736 28.5082 11.9736H35.2084V18.3185H30.8304C29.5292 18.3185 28.4732 19.3748 28.4732 20.6763L28.4715 20.678Z" fill="#213D34"/>
</svg>
