<svg width="50" height="51" viewBox="0 0 50 51" fill="none" xmlns="http://www.w3.org/2000/svg">
<path d="M25.0496 0.603027H24.9357C11.1641 0.603027 0 11.7704 0 25.5461V25.66C0 39.4356 11.1641 50.603 24.9357 50.603H25.0496C38.8212 50.603 49.9853 39.4356 49.9853 25.66V25.5461C49.9853 11.7704 38.8212 0.603027 25.0496 0.603027Z" fill="white"/>
<path d="M37.0754 18.6922V23.4131C36.2506 23.3325 35.1789 23.1451 33.9933 22.7107C32.4452 22.1431 31.2929 21.3671 30.5381 20.7662V30.308L30.5188 30.2782C30.5311 30.4674 30.5381 30.6601 30.5381 30.8545C30.5381 35.593 26.6837 39.4503 21.9448 39.4503C17.206 39.4503 13.3516 35.593 13.3516 30.8545C13.3516 26.1161 17.206 22.257 21.9448 22.257C22.4089 22.257 22.8642 22.2937 23.309 22.3656V27.0182C22.8817 26.8658 22.4229 26.7835 21.9448 26.7835C19.7015 26.7835 17.875 28.6088 17.875 30.8545C17.875 33.1003 19.7015 34.9256 21.9448 34.9256C24.1882 34.9256 26.0147 33.0985 26.0147 30.8545C26.0147 30.7704 26.0129 30.6863 26.0077 30.6023V12.0601H30.7237C30.7412 12.4595 30.757 12.8624 30.7745 13.2618C30.8061 14.0483 31.0862 14.8033 31.5748 15.4217C32.1475 16.1486 32.9933 16.993 34.1807 17.6674C35.2927 18.2963 36.3364 18.5678 37.0754 18.6957V18.6922Z" fill="#213D34"/>
</svg>
