<svg width="50" height="51" viewBox="0 0 50 51" fill="none" xmlns="http://www.w3.org/2000/svg">
<path d="M49.9835 25.6039C49.9835 38.2305 40.6267 48.6691 28.4714 50.363C27.3349 50.5207 26.1721 50.603 24.9918 50.603C23.6293 50.603 22.2914 50.4944 20.9885 50.2842C9.08887 48.3678 0 38.0465 0 25.6039C0 11.7967 11.1903 0.603027 24.9935 0.603027C38.7967 0.603027 49.987 11.7967 49.987 25.6039H49.9835Z" fill="white"/>
<path d="M10.1363 11.6304L21.6628 27.0457L10.0645 39.5794H12.6755L22.8309 28.6065L31.0354 39.5794H39.9194L27.7448 23.297L38.5412 11.6304H35.9301L26.5785 21.7362L19.022 11.6304H10.138H10.1363ZM13.9749 13.5538H18.0553L36.0772 37.656H31.9968L13.9749 13.5538Z" fill="#213D34"/>
</svg>
